<svg width="463" height="497" viewBox="0 0 463 497" fill="none" xmlns="http://www.w3.org/2000/svg">
<path d="M200 45.5C159.828 32.261 122.889 33.7779 98.203 54.2933C43.967 99.366 66.9983 216.524 149.645 315.972C232.292 415.421 343.257 459.502 397.493 414.429C418.465 397 428.114 368.293 427 334.5" stroke="#E47558" stroke-width="8"/>
<circle cx="103" cy="56" r="31" fill="#D9D9D9"/>
<circle cx="94.5" cy="37.5" r="6.5" fill="url(#paint0_linear_9_76)"/>
<circle cx="102.5" cy="51.5" r="6.5" fill="url(#paint1_linear_9_76)"/>
<circle cx="113.5" cy="40.5" r="6.5" fill="url(#paint2_linear_9_76)"/>
<circle cx="402.5" cy="413.5" r="17.5" fill="#D9D9D9"/>
<circle cx="397.702" cy="403.056" r="3.66935" fill="url(#paint3_linear_9_76)"/>
<circle cx="402.218" cy="410.96" r="3.66935" fill="url(#paint4_linear_9_76)"/>
<circle cx="408.427" cy="404.75" r="3.66935" fill="url(#paint5_linear_9_76)"/>
<defs>
<linearGradient id="paint0_linear_9_76" x1="94.5" y1="31" x2="94.5" y2="44" gradientUnits="userSpaceOnUse">
<stop stop-color="#BEBEBE"/>
<stop offset="1" stop-color="#D9D9D9" stop-opacity="0"/>
</linearGradient>
<linearGradient id="paint1_linear_9_76" x1="102.5" y1="45" x2="102.5" y2="58" gradientUnits="userSpaceOnUse">
<stop stop-color="#BEBEBE"/>
<stop offset="1" stop-color="#D9D9D9" stop-opacity="0"/>
</linearGradient>
<linearGradient id="paint2_linear_9_76" x1="113.5" y1="34" x2="113.5" y2="47" gradientUnits="userSpaceOnUse">
<stop stop-color="#BEBEBE"/>
<stop offset="1" stop-color="#D9D9D9" stop-opacity="0"/>
</linearGradient>
<linearGradient id="paint3_linear_9_76" x1="397.702" y1="399.387" x2="397.702" y2="406.726" gradientUnits="userSpaceOnUse">
<stop stop-color="#BEBEBE"/>
<stop offset="1" stop-color="#D9D9D9" stop-opacity="0"/>
</linearGradient>
<linearGradient id="paint4_linear_9_76" x1="402.218" y1="407.29" x2="402.218" y2="414.629" gradientUnits="userSpaceOnUse">
<stop stop-color="#BEBEBE"/>
<stop offset="1" stop-color="#D9D9D9" stop-opacity="0"/>
</linearGradient>
<linearGradient id="paint5_linear_9_76" x1="408.427" y1="401.081" x2="408.427" y2="408.419" gradientUnits="userSpaceOnUse">
<stop stop-color="#BEBEBE"/>
<stop offset="1" stop-color="#D9D9D9" stop-opacity="0"/>
</linearGradient>
</defs>
</svg>
