<svg width="1809" height="819" viewBox="0 0 1809 819" fill="none" xmlns="http://www.w3.org/2000/svg">
<circle cx="722" cy="103" r="4" fill="#D9D9D9"/>
<circle cx="907" cy="188" r="4" fill="#D9D9D9"/>
<circle cx="1634" cy="164" r="4" fill="#D9D9D9"/>
<circle cx="262" cy="784" r="4" fill="#D9D9D9"/>
<circle cx="1114" cy="756" r="4" fill="#D9D9D9"/>
<circle cx="84" cy="156" r="4" fill="#D9D9D9"/>
<circle cx="1777" cy="815" r="4" fill="#D9D9D9"/>
<circle cx="1264" cy="386" r="4" fill="#D9D9D9"/>
<circle cx="481" cy="570" r="4" fill="#D9D9D9"/>
<circle cx="1226" cy="59" r="4" fill="#D9D9D9"/>
<circle cx="864" cy="427" r="4" fill="#D9D9D9"/>
<circle cx="405" cy="164" r="4" fill="#D9D9D9"/>
<circle cx="1402" cy="215" r="4" fill="#D9D9D9"/>
<circle cx="1805" cy="425" r="4" fill="#D9D9D9"/>
<circle cx="772" cy="736" r="4" fill="#D9D9D9"/>
<circle cx="4" cy="532" r="4" fill="#D9D9D9"/>
<circle cx="1042" cy="565" r="4" fill="#D9D9D9"/>
<circle cx="1124" cy="250" r="4" fill="#D9D9D9"/>
<circle cx="1005" cy="4" r="4" fill="#D9D9D9"/>
<circle cx="1490" cy="804" r="4" fill="#D9D9D9"/>
</svg>
